<!--?xml version="1.0" encoding="iso-8859-1"?-->
<!-- Generator: Adobe Illustrator 22.1.0, SVG Export Plug-In . SVG Version: 6.00 Build 0)  -->
<svg version="1.1" id="_x34_" xmlns="http://www.w3.org/2000/svg" xmlns:xlink="http://www.w3.org/1999/xlink" x="0px" y="0px" viewBox="0 0 512 394.7" style="opacity: 1; width: 32px; height: 25px;" xml:space="preserve">
<style type="text/css">
	.st0{fill:#786429;}
	.st1{fill:#FFFFFF;}
	.st2{fill:#F1C64D;}
	.st3{opacity:5.000000e-02;fill:#000031;}
</style>
<g>
	<path class="st0" d="M512,20.4v354c0,11.2-9.1,20.4-20.4,20.4H20.4c-0.9,0-1.8-0.1-2.7-0.2c-0.2,0-0.4,0-0.5-0.1
		c-0.8-0.1-1.6-0.3-2.4-0.5c-0.5-0.2-1.1-0.3-1.6-0.5c-0.5-0.2-1-0.4-1.5-0.6c-0.5-0.2-1-0.5-1.4-0.7c-0.5-0.2-0.9-0.5-1.4-0.9
		c-0.8-0.5-1.6-1.1-2.2-1.8c-0.5-0.5-1-1-1.4-1.4c-0.3-0.4-0.6-0.7-1-1.2c-1.3-1.7-2.4-3.7-3.1-5.8c-0.2-0.4-0.3-0.9-0.4-1.3
		c-0.2-0.4-0.3-0.8-0.3-1.2c-0.2-0.7-0.3-1.3-0.3-2c-0.1-0.7-0.1-1.4-0.1-2.1v-354C0,9.1,9.1,0,20.4,0h471.3c5.2,0,10.1,2,13.7,5.2
		C509.4,9,512,14.4,512,20.4z"></path>
	<path class="st1" d="M462.9,63.1v238.3c0,11.1-9.1,20.1-20.1,20.1H69.2c-11.1,0-20.1-9-20.1-20.1V63.1c0-11,9-20.1,20.1-20.1h373.6
		C453.8,43,462.9,52.1,462.9,63.1z"></path>
	<path class="st2" d="M512,106.4v267.9c0,11.2-9.1,20.4-20.4,20.4H20.4c-0.9,0-1.8-0.1-2.7-0.2c-0.2,0-0.4,0-0.5-0.1
		c-0.8-0.1-1.6-0.3-2.4-0.5c-0.5-0.2-1.1-0.3-1.6-0.5c-0.5-0.2-1-0.4-1.5-0.6c-0.5-0.2-1-0.5-1.4-0.7c-0.5-0.2-0.9-0.5-1.4-0.9
		c-0.8-0.5-1.6-1.1-2.2-1.8c-0.5-0.5-1-1-1.4-1.4c-0.3-0.4-0.6-0.7-1-1.2c-1.3-1.7-2.4-3.7-3.1-5.8c-0.2-0.4-0.3-0.9-0.4-1.3
		c-0.2-0.4-0.3-0.8-0.3-1.2c-0.2-0.7-0.3-1.3-0.3-2c-0.1-0.7-0.1-1.4-0.1-2.1v-354C0,9.1,9.1,0,20.4,0h136.3l13.2,43l9.6,31.4
		c1,3.1,2.2,6,3.7,8.7c0.4,0.9,1,1.8,1.6,2.6c6,9.3,15.3,16.1,26,19.1c0.9,0.2,1.7,0.4,2.6,0.6c0.2,0.1,0.4,0.1,0.6,0.1
		c0.8,0.2,1.4,0.3,2.2,0.4c2.1,0.3,4.3,0.5,6.5,0.5H512z"></path>
	<path class="st3" d="M462.9,83.2v23.2H222.8c-16.7,0-31.7-9.1-39.5-23.2H462.9z"></path>
	<path class="st3" d="M512,20.4v354c0,11.2-9.1,20.4-20.4,20.4H20.4c-0.9,0-1.8-0.1-2.7-0.2c-0.2,0-0.4,0-0.5-0.1
		c-0.8-0.1-1.6-0.3-2.4-0.5c4.6-5.1,39.3-33.3,88.4-72.4c75.8-60.4,185.9-147,272.8-215.1c10.2-8,20.2-15.8,29.7-23.2
		c17.4-13.7,33.5-26.2,47.5-37.2c24.4-19.1,42.8-33.5,52.1-40.7C509.4,9,512,14.4,512,20.4z"></path>
</g>
</svg>
