<!--?xml version="1.0" encoding="iso-8859-1"?-->
<!-- Generator: Adobe Illustrator 24.0.2, SVG Export Plug-In . SVG Version: 6.00 Build 0)  -->
<svg version="1.1" id="_x34_" xmlns="http://www.w3.org/2000/svg" xmlns:xlink="http://www.w3.org/1999/xlink" x="0px" y="0px" viewBox="0 0 512 487.4" style="opacity: 1; width: 32px; height: 31px;" xml:space="preserve">
<style type="text/css">
	.st0{fill:#E8BC44;}
	.st1{opacity:0.2;fill:#FFFFFF;}
</style>
<g>
	<path class="st0" d="M260.1,2.9l60.5,172.9c0.6,1.7,2.2,2.9,4,2.9l183.2,4.1c4.1,0.1,5.8,5.3,2.5,7.8l-145.8,111
		c-1.4,1.1-2,3-1.5,4.7l52.7,175.5c1.2,3.9-3.2,7.1-6.6,4.8L258.5,382.2c-1.5-1-3.5-1-4.9,0L102.9,486.6c-3.4,2.3-7.8-0.9-6.6-4.8
		L149,306.3c0.5-1.7-0.1-3.6-1.5-4.7L1.7,190.6c-3.3-2.5-1.6-7.7,2.5-7.8l183.2-4.1c1.8,0,3.4-1.2,4-2.9L251.9,2.9
		C253.3-1,258.7-1,260.1,2.9z"></path>
	<path class="st1" d="M260.1,2.9c-1.4-3.9-6.8-3.9-8.2,0l-60.5,172.9c-0.6,1.7-2.2,2.9-4,2.9L4.2,182.8c-4.1,0.1-5.8,5.3-2.5,7.8
		l145.8,111c1.4,1.1,2,3,1.5,4.7l-36.7,122.2l205.4-260.8L260.1,2.9z"></path>
</g>
</svg>
